<svg width="18" height="18" viewBox="0 0 18 18" fill="none" xmlns="http://www.w3.org/2000/svg">
<path d="M16.0155 1.9845C15.7418 1.7105 15.4167 1.49314 15.0589 1.34484C14.7011 1.19654 14.3176 1.1202 13.9303 1.1202C13.543 1.1202 13.1595 1.19654 12.8017 1.34484C12.4439 1.49314 12.1189 1.7105 11.8451 1.9845L2.98913 10.8405C2.56875 11.2615 2.26885 11.7875 2.12063 12.3637L1.14188 16.173C1.11761 16.2678 1.11848 16.3672 1.1444 16.4616C1.17033 16.5559 1.22041 16.6419 1.2897 16.7109C1.359 16.78 1.44511 16.8298 1.53954 16.8554C1.63396 16.881 1.73343 16.8816 1.82813 16.857L5.63626 15.8794C6.21269 15.7317 6.7388 15.4317 7.15951 15.0109L16.0155 6.15487C16.2895 5.88114 16.5069 5.55608 16.6552 5.19829C16.8035 4.8405 16.8798 4.45699 16.8798 4.06969C16.8798 3.68238 16.8035 3.29887 16.6552 2.94108C16.5069 2.58329 16.2895 2.25824 16.0155 1.9845ZM12.6405 2.77987C12.9826 2.43779 13.4465 2.24562 13.9303 2.24562C14.4141 2.24562 14.8781 2.43779 15.2201 2.77987C15.5622 3.12195 15.7544 3.58591 15.7544 4.06969C15.7544 4.55346 15.5622 5.01742 15.2201 5.3595L14.3438 6.23587L11.7641 3.65625L12.6405 2.77987ZM10.9688 4.45162L13.5484 7.03125L6.36413 14.2155C6.08569 14.4937 5.73752 14.6919 5.35613 14.7892L2.46826 15.5317L3.21076 12.6439C3.30759 12.2623 3.50584 11.914 3.78451 11.6359L10.9688 4.45162Z" fill="white"/>
</svg>
