<svg width="26" height="26" viewBox="0 0 26 26" fill="none" xmlns="http://www.w3.org/2000/svg">
<path d="M21.6667 20.5834V11.375C21.6667 11.2068 21.6275 11.041 21.5523 10.8905C21.4771 10.7401 21.3679 10.6093 21.2333 10.5084L13.65 4.82085C13.4625 4.68021 13.2344 4.60419 13 4.60419C12.7656 4.60419 12.5375 4.68021 12.35 4.82085L4.76668 10.5084C4.63213 10.6093 4.52293 10.7401 4.44771 10.8905C4.3725 11.041 4.33334 11.2068 4.33334 11.375V20.5834C4.33334 20.8707 4.44748 21.1462 4.65064 21.3494C4.85381 21.5526 5.12936 21.6667 5.41668 21.6667H9.75001C10.0373 21.6667 10.3129 21.5526 10.516 21.3494C10.7192 21.1462 10.8333 20.8707 10.8333 20.5834V17.3334C10.8333 17.046 10.9475 16.7705 11.1506 16.5673C11.3538 16.3642 11.6294 16.25 11.9167 16.25H14.0833C14.3707 16.25 14.6462 16.3642 14.8494 16.5673C15.0525 16.7705 15.1667 17.046 15.1667 17.3334V20.5834C15.1667 20.8707 15.2808 21.1462 15.484 21.3494C15.6871 21.5526 15.9627 21.6667 16.25 21.6667H20.5833C20.8707 21.6667 21.1462 21.5526 21.3494 21.3494C21.5525 21.1462 21.6667 20.8707 21.6667 20.5834Z" stroke="white" stroke-width="2" stroke-linecap="round" stroke-linejoin="round"/>
</svg>
