<svg width="22" height="20" viewBox="0 0 22 20" fill="none" xmlns="http://www.w3.org/2000/svg">
<path fill-rule="evenodd" clip-rule="evenodd" d="M10.7497 1.692C11.921 0.606817 13.458 0.00270081 15.0547 0C16.7807 0 18.4287 0.71 19.6347 1.96C20.8348 3.211 21.5033 4.87845 21.4997 6.612C21.5033 8.34555 20.8348 10.013 19.6347 11.264C18.8387 12.089 18.0437 12.934 17.2447 13.782C15.6207 15.506 13.9797 17.249 12.2747 18.89L12.2717 18.894C11.8484 19.2949 11.2839 19.5125 10.7011 19.4996C10.1182 19.4867 9.5639 19.2443 9.15874 18.825L1.86374 11.264C-0.621261 8.687 -0.621261 4.537 1.86374 1.961C3.01235 0.757408 4.58862 0.0544002 6.25157 0.00405884C7.91452 -0.0462825 9.53043 0.56009 10.7497 1.692Z" fill="#E0245E"/>
</svg>
