<svg width="26" height="26" viewBox="0 0 26 26" fill="none" xmlns="http://www.w3.org/2000/svg">
<path d="M11.1229 22.75C11.313 23.0794 11.5866 23.3529 11.9159 23.543C12.2453 23.7332 12.6189 23.8333 12.9992 23.8333C13.3795 23.8333 13.7531 23.7332 14.0825 23.543C14.4119 23.3529 14.6854 23.0794 14.8755 22.75M3.53304 16.6032C3.39152 16.7583 3.29813 16.9512 3.26422 17.1584C3.23031 17.3656 3.25735 17.5782 3.34206 17.7704C3.42676 17.9625 3.56547 18.1259 3.74132 18.2406C3.91717 18.3554 4.12257 18.4165 4.33254 18.4167H21.6659C21.8758 18.4168 22.0813 18.3558 22.2572 18.2413C22.4332 18.1268 22.5721 17.9636 22.657 17.7716C22.7419 17.5796 22.7692 17.367 22.7356 17.1598C22.702 16.9526 22.6088 16.7596 22.4675 16.6043C21.0267 15.119 19.4992 13.5406 19.4992 8.66669C19.4992 6.94278 18.8144 5.28948 17.5954 4.07049C16.3764 2.85151 14.7231 2.16669 12.9992 2.16669C11.2753 2.16669 9.622 2.85151 8.40301 4.07049C7.18403 5.28948 6.49921 6.94278 6.49921 8.66669C6.49921 13.5406 4.97063 15.119 3.53304 16.6032Z" stroke="white" stroke-width="2" stroke-linecap="round" stroke-linejoin="round"/>
</svg>
