<svg width="20" height="21" viewBox="0 0 20 21" fill="none" xmlns="http://www.w3.org/2000/svg">
<path fill-rule="evenodd" clip-rule="evenodd" d="M10 2C5.403 2 2 5.073 2 8.5C2 10.514 3.141 12.372 5.042 13.596C5.78 14.072 5.981 14.999 6.014 15.818C6.767 15.508 7.272 14.658 8.186 14.832C8.76933 14.9427 9.374 14.9987 10 15C14.597 15 18 11.927 18 8.5C18 5.073 14.597 2 10 2ZM0 8.5C0 3.643 4.656 0 10 0C15.344 0 20 3.643 20 8.5C20 13.357 15.344 17 10 17C9.346 16.9993 8.709 16.9477 8.089 16.845C7.996 16.918 7.836 17.05 7.639 17.189C7.07 17.59 6.249 18 5 18C4.73478 18 4.48043 17.8946 4.29289 17.7071C4.10536 17.5196 4 17.2652 4 17C4 16.45 4.143 15.766 3.906 15.244C1.577 13.723 0 11.298 0 8.5Z" fill="white"/>
</svg>
