<svg width="26" height="26" viewBox="0 0 26 26" fill="none" xmlns="http://www.w3.org/2000/svg">
<path d="M10.8333 2.16669C9.45401 2.16654 8.09457 2.49562 6.86801 3.12656C5.64145 3.75751 4.5832 4.6721 3.78122 5.79432C2.97924 6.91654 2.4567 8.21397 2.25703 9.57876C2.05736 10.9436 2.18632 12.3363 2.63321 13.6412C3.08009 14.9462 3.83198 16.1256 4.82639 17.0815C5.82079 18.0373 7.02899 18.7421 8.35055 19.1371C9.67211 19.5321 11.0689 19.6059 12.4247 19.3525C13.7806 19.0991 15.0563 18.5257 16.146 17.68L21.983 23.5149C22.0829 23.6183 22.2025 23.7009 22.3346 23.7576C22.4668 23.8144 22.609 23.8443 22.7528 23.8455C22.8967 23.8468 23.0393 23.8194 23.1725 23.7649C23.3056 23.7104 23.4265 23.63 23.5283 23.5283C23.63 23.4266 23.7104 23.3056 23.7649 23.1725C23.8194 23.0393 23.8468 22.8967 23.8455 22.7528C23.8443 22.609 23.8144 22.4668 23.7576 22.3347C23.7008 22.2025 23.6183 22.083 23.5148 21.983L17.68 16.1482C18.6746 14.8671 19.2898 13.3326 19.4556 11.7193C19.6214 10.1059 19.3311 8.47839 18.6178 7.0218C17.9045 5.56522 16.7968 4.338 15.4207 3.47971C14.0446 2.62143 12.4552 2.16651 10.8333 2.16669ZM4.33333 10.8334C4.33333 9.10945 5.01815 7.45615 6.23714 6.23716C7.45613 5.01817 9.10943 4.33335 10.8333 4.33335C12.5572 4.33335 14.2105 5.01817 15.4295 6.23716C16.6485 7.45615 17.3333 9.10945 17.3333 10.8334C17.3333 12.5573 16.6485 14.2106 15.4295 15.4295C14.2105 16.6485 12.5572 17.3334 10.8333 17.3334C9.10943 17.3334 7.45613 16.6485 6.23714 15.4295C5.01815 14.2106 4.33333 12.5573 4.33333 10.8334Z" fill="white"/>
</svg>
