<svg width="22" height="22" viewBox="0 0 22 22" fill="none" xmlns="http://www.w3.org/2000/svg">
<path fill-rule="evenodd" clip-rule="evenodd" d="M12.8654 2.57492C13.2046 2.33108 13.6813 2.21742 14.1497 2.38883C15.1455 2.75382 16.0703 3.28884 16.8832 3.97008C17.2654 4.29092 17.4057 4.75933 17.3635 5.17367C17.2948 5.86392 17.4158 6.53033 17.7485 7.10417C18.0418 7.61475 18.4837 8.01808 19.0227 8.30225L19.2289 8.40308C19.6084 8.5745 19.9458 8.93108 20.031 9.42333C20.2132 10.4666 20.2132 11.5334 20.031 12.5767C19.9549 13.0203 19.6735 13.3531 19.3408 13.5401L19.2289 13.5978C18.5964 13.882 18.0794 14.322 17.7476 14.8958C17.4158 15.4706 17.2948 16.1361 17.3635 16.8263C17.4048 17.2407 17.2654 17.71 16.8832 18.0299C16.0703 18.7112 15.1455 19.2462 14.1497 19.6112C13.9368 19.6873 13.7086 19.7101 13.4849 19.6777C13.2612 19.6453 13.0488 19.5585 12.8663 19.4251C12.3017 19.0208 11.6628 18.7917 11 18.7917C10.3373 18.7917 9.69834 19.0199 9.13459 19.4251C8.95203 19.5587 8.73951 19.6455 8.51562 19.6779C8.29174 19.7104 8.06331 19.6875 7.85034 19.6112C6.85456 19.2462 5.92967 18.7112 5.11684 18.0299C4.94465 17.8837 4.81085 17.6976 4.72712 17.4878C4.6434 17.278 4.61229 17.0509 4.63651 16.8263C4.70526 16.1361 4.58334 15.4697 4.25151 14.8958C3.94984 14.383 3.50771 13.9673 2.97734 13.6978L2.77109 13.5969C2.5642 13.5054 2.3829 13.3645 2.24307 13.1866C2.10324 13.0088 2.00914 12.7993 1.96901 12.5767C1.78686 11.5334 1.78686 10.4666 1.96901 9.42333C2.04509 8.97967 2.32651 8.64692 2.65926 8.45992L2.77109 8.40308C3.40359 8.118 3.92059 7.67892 4.25243 7.10417C4.58334 6.53033 4.70526 5.86392 4.63651 5.17367C4.61229 4.94909 4.6434 4.72199 4.72712 4.51219C4.81085 4.3024 4.94465 4.11628 5.11684 3.97008C5.92967 3.28884 6.85456 2.75382 7.85034 2.38883C8.06319 2.3127 8.29144 2.28986 8.51515 2.3223C8.73886 2.35473 8.95122 2.44147 9.13368 2.57492C9.69743 2.98008 10.3363 3.20833 11 3.20833C11.6637 3.20833 12.3017 2.98008 12.8654 2.57492ZM13.7427 4.1965C12.9488 4.719 12.0129 5.04167 11 5.04167C9.98709 5.04167 9.05118 4.71808 8.25734 4.1965C7.61924 4.4542 7.02059 4.80043 6.47901 5.225C6.53401 6.17192 6.34609 7.14358 5.84009 8.02083C5.33318 8.89717 4.58609 9.54525 3.73818 9.9715C3.64171 10.6532 3.64171 11.345 3.73818 12.0267C4.58609 12.4529 5.33318 13.101 5.84009 13.9792C6.34609 14.8546 6.53401 15.8263 6.47901 16.7732C7.02054 17.1981 7.61919 17.5446 8.25734 17.8026C9.05118 17.2801 9.98709 16.9574 11 16.9574C12.0129 16.9574 12.9488 17.281 13.7427 17.8026C14.3808 17.5449 14.9794 17.1987 15.521 16.7741C15.466 15.8263 15.6539 14.8546 16.1599 13.9783C16.6659 13.101 17.4139 12.4529 18.2618 12.0258C18.3581 11.3447 18.3581 10.6535 18.2618 9.97242C17.4139 9.54525 16.6668 8.89717 16.1599 8.01992C15.6539 7.14358 15.466 6.17192 15.521 5.22408C14.9794 4.79951 14.3808 4.4542 13.7427 4.1965ZM11 7.33333C11.9725 7.33333 12.9051 7.71964 13.5927 8.40728C14.2804 9.09491 14.6667 10.0275 14.6667 11C14.6667 11.9725 14.2804 12.9051 13.5927 13.5927C12.9051 14.2804 11.9725 14.6667 11 14.6667C10.0275 14.6667 9.09492 14.2804 8.40728 13.5927C7.71965 12.9051 7.33334 11.9725 7.33334 11C7.33334 10.0275 7.71965 9.09491 8.40728 8.40728C9.09492 7.71964 10.0275 7.33333 11 7.33333ZM11 9.16667C10.5138 9.16667 10.0475 9.35982 9.70365 9.70364C9.35983 10.0475 9.16668 10.5138 9.16668 11C9.16668 11.4862 9.35983 11.9525 9.70365 12.2964C10.0475 12.6402 10.5138 12.8333 11 12.8333C11.4862 12.8333 11.9526 12.6402 12.2964 12.2964C12.6402 11.9525 12.8333 11.4862 12.8333 11C12.8333 10.5138 12.6402 10.0475 12.2964 9.70364C11.9526 9.35982 11.4862 9.16667 11 9.16667Z" fill="white"/>
</svg>
