<svg width="24" height="24" viewBox="0 0 24 24" fill="none" xmlns="http://www.w3.org/2000/svg">
<g clip-path="url(#clip0_88_4)">
<path d="M6.3533 11.9548H21.9096M6.3533 11.9548L3.87842 19.3794C3.84175 19.4782 3.83419 19.5853 3.85664 19.6882C3.87909 19.7911 3.93062 19.8854 4.00509 19.9599C4.07956 20.0343 4.17384 20.0859 4.27674 20.1083C4.37963 20.1308 4.48681 20.1232 4.58553 20.0865L21.9096 11.9548M6.3533 11.9548L3.87842 4.53019C3.84175 4.43147 3.83419 4.32429 3.85664 4.2214C3.87909 4.1185 3.93062 4.02422 4.00509 3.94975C4.07956 3.87528 4.17384 3.82376 4.27673 3.8013C4.37963 3.77885 4.48681 3.78641 4.58553 3.82308L21.9096 11.9548" stroke="white" stroke-width="2" stroke-linecap="round" stroke-linejoin="round"/>
</g>
<defs>
<clipPath id="clip0_88_4">
<rect width="24" height="24" fill="white"/>
</clipPath>
</defs>
</svg>
